<svg width="288" height="309" viewBox="5 -12 288 309" fill="none" xmlns="http://www.w3.org/2000/svg">
  <defs>
    
    
    <linearGradient id="ribbon-grad" x1="0%" y1="50%" x2="100%" y2="50%">
      <stop offset="0%" stop-color="#9c27b0"></stop>
      <stop offset="15%" stop-color="#3b82f6"></stop>
      <stop offset="30%" stop-color="#19ac9b"></stop>
      <stop offset="45%" stop-color="#10b981"></stop>
      <stop offset="65%" stop-color="#fbca2d"></stop>
      <stop offset="82%" stop-color="#ff8c42"></stop>
      <stop offset="100%" stop-color="#ff5f56"></stop>
    </linearGradient>
    
    
    <mask id="flutes-cut">
      <rect x="-10" y="-30" width="320" height="340" fill="white"></rect>
      <path d="M38.61 166.188C144.452 131.335 179.334 135.705 282.023 169.345L234.507 102.636L162.26 66.4735C143.929 58.6795 132.652 59.4918 114.428 68.5948L11.6193 128.294L38.61 166.188Z" fill="black"></path>
    </mask>
  </defs>

  
  <g mask="url(#flutes-cut)" fill="#ffffff">
    <path class="logo-flute" d="M63.264 19.0487C66.9386 18.3557 71.175 17.7581 75.8704 17.3473C80.3461 16.9557 84.4315 16.8459 88.0315 16.8818C93.824 83.09 99.5633 149.323 105.328 215.534L98.9408 205.775C98.2257 191.909 92.0148 181.639 82.8824 180.354C81.3692 180.135 79.5444 180.15 77.3692 180.588C72.8518 129.271 68.3344 77.9531 63.817 26.6355C65.6371 26.2492 68.3942 25.8223 71.7287 25.9846C75.8135 26.1843 78.859 27.156 80.6056 27.8286C79.3664 26.9466 76.4981 25.1546 72.0098 24.4536C68.3906 23.8829 65.2967 24.2567 63.6086 24.5695C63.5041 22.7421 63.3703 20.8966 63.264 19.0487Z"></path>
    <path class="logo-flute" d="M93.1554 16.4933C96.8268 15.7635 101.061 15.1434 105.757 14.7326C110.232 14.341 114.32 14.2558 117.923 14.3264C124.295 87.1555 130.613 160.012 136.958 232.843L130.481 222.06C129.645 206.811 123.34 195.469 114.189 193.977C112.673 193.723 110.847 193.724 108.674 194.187C103.708 137.737 98.7411 81.2875 93.7748 24.8378C95.5928 24.4291 98.3484 23.9837 101.687 24.191C105.776 24.4461 108.833 25.5407 110.586 26.2952C109.339 25.3148 106.453 23.3201 101.955 22.5105C98.3279 21.8518 95.2349 22.2359 93.5482 22.565C93.4278 20.5553 93.2778 18.5255 93.1554 16.4933Z"></path>
    <path class="logo-flute" d="M123.046 13.938C126.715 13.1713 130.947 12.5286 135.642 12.1178C140.118 11.7263 144.208 11.6656 147.814 11.7711C154.765 91.2209 161.663 170.7 168.587 250.152L162.02 238.345C161.063 221.714 154.664 209.298 145.496 207.6C143.976 207.312 142.149 207.298 139.978 207.785C134.563 146.204 129.147 84.6218 123.732 23.0402C125.548 22.6089 128.302 22.1451 131.644 22.3975C135.739 22.7078 138.806 23.9253 140.567 24.7617C139.31 23.683 136.407 21.4856 131.899 20.5675C128.265 19.8207 125.173 20.215 123.487 20.5605C123.351 18.3686 123.185 16.1545 123.046 13.938Z"></path>
    <path class="logo-flute" d="M152.937 11.3828C156.602 10.5793 160.832 9.91412 165.528 9.50333C170.003 9.11175 174.095 9.07568 177.704 9.21596C185.235 95.2866 192.712 181.389 200.215 267.462L193.559 254.631C192.481 236.617 185.988 223.129 176.801 221.223C175.279 220.9 173.451 220.872 171.282 221.384C165.417 154.67 159.553 87.9565 153.689 21.2428C155.503 20.789 158.255 20.3068 161.601 20.6042C165.701 20.9698 168.779 22.3101 170.547 23.2285C169.282 22.0515 166.36 19.6513 161.843 18.6247C158.201 17.7898 155.11 18.1944 153.426 18.5563C153.274 16.1821 153.091 13.7837 152.937 11.3828Z"></path>
    <path class="logo-flute" d="M182.828 8.82749C186.489 7.98711 190.718 7.29938 195.413 6.88858C199.889 6.497 203.983 6.48551 207.595 6.66061C215.705 99.3521 223.762 192.077 231.844 284.771L225.098 270.916C223.899 251.52 217.313 236.958 208.108 234.846C206.582 234.488 204.753 234.446 202.586 234.982C196.273 163.136 189.959 91.2908 183.646 19.4452C185.458 18.9688 188.209 18.4682 191.559 18.8106C195.663 19.2316 198.752 20.6948 200.527 21.695C199.253 20.4198 196.314 17.8168 191.788 16.6817C188.138 15.7587 185.048 16.1735 183.365 16.5518C183.197 13.9954 182.999 11.4126 182.828 8.82749Z"></path>
  </g>

  
  <path d="M74.5 150.115L70 98.1152L115.5 73.6153C132.94 65.2533 142.112 63.7812 161 71.1152L215 97.6153L219.5 146.115C162.091 133.203 130.421 136.149 74.5 150.115Z" fill="url(#ribbon-grad)"></path>
</svg>