<svg width="823" height="280" viewBox="0 0 823 280" fill="none" xmlns="http://www.w3.org/2000/svg">
  <defs>
    
    <clipPath id="clip0_2301_123">
      <rect width="822.4" height="306" fill="white"></rect>
    </clipPath>
  </defs>
  <g clip-path="url(#clip0_2301_123)" fill="#ffffff">
    
    <path class="wordmark" d="M83.5 156C93.8333 140.667 104 126.583 114 113.75C124.167 100.75 133.833 89.5833 143 80.25C152.167 70.9167 160.583 63.6667 168.25 58.5C175.917 53.3333 182.583 50.75 188.25 50.75C190.417 50.75 192.75 51.5833 195.25 53.25C197.917 54.9167 200.333 57.0833 202.5 59.75C204.833 62.4167 206.75 65.3333 208.25 68.5C209.75 71.5 210.5 74.4167 210.5 77.25C200.167 80.5833 190 85 180 90.5C170.167 95.8333 160.667 102.083 151.5 109.25C142.5 116.25 133.833 124.083 125.5 132.75C117.333 141.417 109.917 150.667 103.25 160.5C105.917 167.333 109.167 174.667 113 182.5C117 190.167 121.333 197.667 126 205C130.667 212.167 135.667 218.833 141 225C146.333 231.167 151.75 236.083 157.25 239.75C156.417 241.583 155 243.333 153 245C151 246.667 148.833 248.167 146.5 249.5C144.167 251 141.667 252.167 139 253C136.5 253.833 134.167 254.25 132 254.25C127.667 254.25 123.667 252.167 120 248C116.333 244 112.583 237.917 108.75 229.75C105.083 221.417 101.167 211.167 97 199C93 186.667 88.5 172.333 83.5 156ZM45.75 255.5C39.4167 254 34.1667 251.333 30 247.5C25.8333 243.833 22 239.167 18.5 233.5C20 230.333 21.75 226.167 23.75 221C25.9167 215.833 28.5 209.5 31.5 202C34.5 194.333 38.0833 185.25 42.25 174.75C46.4167 164.083 51.25 151.667 56.75 137.5C60.25 128.5 63.0833 120.917 65.25 114.75C67.5833 108.583 69.5 102.583 71 96.75C72.6667 90.75 74.25 84.1667 75.75 77C77.25 69.8333 79 60.75 81 49.75C88 51.0833 94.3333 54.1667 100 59C105.833 63.8333 110.833 69.6667 115 76.5C113.167 78.8333 111 82.4167 108.5 87.25C106.167 91.9167 103.5 97.5833 100.5 104.25C97.5 110.917 94.1667 118.333 90.5 126.5C86.8333 134.667 83 143.333 79 152.5C70 172.5 62.9167 190.833 57.75 207.5C52.5833 224 48.5833 240 45.75 255.5ZM261.623 134.25C263.29 134.25 265.206 134.583 267.373 135.25C269.706 135.75 271.79 136.5 273.623 137.5C275.456 138.333 276.956 139.25 278.123 140.25C279.456 141.25 280.123 142.167 280.123 143C276.79 150 273.706 157.083 270.873 164.25C268.04 171.25 265.623 178 263.623 184.5C261.623 191 260.04 197.083 258.873 202.75C257.873 208.417 257.373 213.333 257.373 217.5C257.373 222.167 257.873 226.083 258.873 229.25C259.873 232.25 261.54 234.417 263.873 235.75C261.873 237.083 259.29 238.167 256.123 239C252.956 239.833 250.123 240.25 247.623 240.25C238.623 240.25 234.123 234.083 234.123 221.75C234.123 212.25 237.29 199.25 243.623 182.75C240.29 190.417 236.456 197.667 232.123 204.5C227.79 211.167 223.373 217.083 218.873 222.25C214.373 227.417 209.79 231.667 205.123 235C200.623 238.167 196.456 240.083 192.623 240.75C186.456 240.417 181.456 237.5 177.623 232C173.79 226.333 171.873 219.167 171.873 210.5C171.873 201.167 173.873 191.333 177.873 181C181.873 170.667 186.956 161.083 193.123 152.25C199.456 143.417 206.29 136.083 213.623 130.25C220.956 124.25 228.04 121.083 234.873 120.75C236.54 121.25 238.373 122.25 240.373 123.75C242.54 125.25 244.54 127 246.373 129C248.373 131 250.04 133.083 251.373 135.25C252.706 137.25 253.456 139 253.623 140.5C246.956 141.5 240.04 144.75 232.873 150.25C225.873 155.75 219.456 162.417 213.623 170.25C207.956 177.917 203.29 186.167 199.623 195C195.956 203.833 194.123 212.083 194.123 219.75C194.123 222.917 195.29 224.917 197.623 225.75C202.456 224.75 208.04 220.667 214.373 213.5C220.706 206.167 228.373 194.917 237.373 179.75C239.04 176.75 240.873 173.417 242.873 169.75C245.04 166.083 247.206 162.25 249.373 158.25C251.54 154.25 253.623 150.25 255.623 146.25C257.79 142.083 259.79 138.083 261.623 134.25ZM498.195 134.25C499.862 134.25 501.779 134.583 503.945 135.25C506.279 135.75 508.362 136.5 510.195 137.5C512.029 138.333 513.529 139.25 514.695 140.25C516.029 141.25 516.695 142.167 516.695 143C513.362 150 510.279 157.083 507.445 164.25C504.612 171.25 502.195 178 500.195 184.5C498.195 191 496.612 197.083 495.445 202.75C494.445 208.417 493.945 213.333 493.945 217.5C493.945 222.167 494.445 226.083 495.445 229.25C496.445 232.25 498.112 234.417 500.445 235.75C498.445 237.083 495.862 238.167 492.695 239C489.529 239.833 486.695 240.25 484.195 240.25C475.195 240.25 470.695 234.083 470.695 221.75C470.695 212.25 473.862 199.25 480.195 182.75C476.862 190.417 473.029 197.667 468.695 204.5C464.362 211.167 459.945 217.083 455.445 222.25C450.945 227.417 446.362 231.667 441.695 235C437.195 238.167 433.029 240.083 429.195 240.75C423.029 240.417 418.029 237.5 414.195 232C410.362 226.333 408.445 219.167 408.445 210.5C408.445 201.167 410.445 191.333 414.445 181C418.445 170.667 423.529 161.083 429.695 152.25C436.029 143.417 442.862 136.083 450.195 130.25C457.529 124.25 464.612 121.083 471.445 120.75C473.112 121.25 474.945 122.25 476.945 123.75C479.112 125.25 481.112 127 482.945 129C484.945 131 486.612 133.083 487.945 135.25C489.279 137.25 490.029 139 490.195 140.5C483.529 141.5 476.612 144.75 469.445 150.25C462.445 155.75 456.029 162.417 450.195 170.25C444.529 177.917 439.862 186.167 436.195 195C432.529 203.833 430.695 212.083 430.695 219.75C430.695 222.917 431.862 224.917 434.195 225.75C439.029 224.75 444.612 220.667 450.945 213.5C457.279 206.167 464.945 194.917 473.945 179.75C475.612 176.75 477.445 173.417 479.445 169.75C481.612 166.083 483.779 162.25 485.945 158.25C488.112 154.25 490.195 150.25 492.195 146.25C494.362 142.083 496.362 138.083 498.195 134.25ZM673.877 158.5C671.21 158.667 667.96 160.417 664.127 163.75C660.294 166.917 656.127 171.083 651.627 176.25C647.294 181.25 642.71 186.833 637.877 193C633.21 199.167 628.627 205.333 624.127 211.5C619.794 217.5 615.71 223.167 611.877 228.5C608.044 233.833 604.794 238.083 602.127 241.25C598.46 239.75 595.294 237.583 592.627 234.75C589.96 231.75 588.044 228.083 586.877 223.75C587.71 218.583 588.877 213.25 590.377 207.75C591.877 202.083 593.794 196.25 596.127 190.25C598.627 184.25 601.627 178 605.127 171.5C608.794 164.833 613.21 157.833 618.377 150.5C615.877 150.667 612.46 152.5 608.127 156C603.794 159.333 599.127 163.75 594.127 169.25C589.127 174.583 583.96 180.667 578.627 187.5C573.294 194.167 568.294 200.75 563.627 207.25C557.46 215.917 552.294 223.5 548.127 230C544.127 236.5 541.21 240.333 539.377 241.5C535.044 238.333 532.044 234.917 530.377 231.25C528.71 227.583 527.46 223.5 526.627 219C526.794 215 527.377 210 528.377 204C529.544 198 531.127 191.833 533.127 185.5C536.96 173.333 541.877 161.25 547.877 149.25C554.044 137.25 559.96 126.25 565.627 116.25C570.294 117.25 574.46 118.833 578.127 121C581.96 123.167 585.96 126.333 590.127 130.5C588.46 135.667 585.877 141.167 582.377 147C578.877 152.667 575.21 158.667 571.377 165C567.544 171.333 564.044 177.833 560.877 184.5C557.71 191.167 555.627 197.917 554.627 204.75C559.294 198.083 564.794 190.417 571.127 181.75C577.627 173.083 584.21 164.917 590.877 157.25C597.71 149.583 604.46 143.083 611.127 137.75C617.794 132.417 623.794 129.75 629.127 129.75C631.127 129.75 633.294 130.083 635.627 130.75C637.96 131.417 640.127 132.25 642.127 133.25C644.127 134.25 645.794 135.25 647.127 136.25C648.46 137.083 649.21 137.75 649.377 138.25C648.544 141.583 646.544 146.167 643.377 152C640.377 157.667 637.127 163.667 633.627 170C630.127 176.333 626.877 182.5 623.877 188.5C620.877 194.333 619.127 199 618.627 202.5C626.794 191.333 634.46 181.25 641.627 172.25C648.794 163.083 655.544 155.25 661.877 148.75C668.21 142.25 674.044 137.25 679.377 133.75C684.877 130.25 690.044 128.5 694.877 128.5C698.21 128.5 701.294 129.417 704.127 131.25C707.127 132.917 709.21 135.417 710.377 138.75C708.877 143.75 706.377 149.75 702.877 156.75C699.544 163.75 696.127 171.167 692.627 179C689.127 186.667 685.96 194.25 683.127 201.75C680.46 209.25 679.127 216 679.127 222C679.127 225.5 679.627 227.833 680.627 229C681.627 230 683.044 230.5 684.877 230.5C686.877 230.5 688.71 230.167 690.377 229.5C692.21 228.667 693.544 228.25 694.377 228.25C695.377 228.917 695.96 229.75 696.127 230.75C696.294 231.75 696.377 232.667 696.377 233.5C693.044 236.167 693.044 236.167 689.627 238.333C686.127 240.5 682.627 241.833 678.71 242.75C674.377 242.75 670.377 242.75 667.044 242.083C664.377 240.75 661.877 239.417 659.794 237.583C658.127 235.25 656.46 232.917 654.627 230.25C652.96 227.583 651.627 224.25 651.627 221C651.627 217.5 652.377 211.833 653.877 206.25C655.377 200.75 657.127 195.083 659.127 189.75C661.127 184.75 663.294 179.583 665.544 174.833C667.877 170.5 670.21 166 672.21 162ZM750.039 244C740.539 243 732.956 238.833 727.289 231.5C721.622 224.167 718.789 214.833 718.789 203.5C718.789 196.833 719.789 189.917 721.789 182.75C723.789 175.583 726.622 168.667 730.289 162C733.956 155.167 738.289 148.75 743.289 142.75C748.289 136.75 753.706 131.583 759.539 127.25C768.706 120.417 777.289 117 785.289 117C790.622 119.833 795.872 125.75 801.039 134.75C801.872 134.75 802.622 134.75 803.289 134.75C803.956 134.583 804.706 134.5 805.539 134.5C814.372 134.5 818.789 142.333 818.789 158C818.789 168.5 817.039 178.5 813.539 188C810.206 197.333 805.456 205.833 799.289 213.5C793.289 221.167 786.039 227.667 777.539 233C769.206 238.167 760.039 241.833 750.039 244ZM762.789 165.25C759.956 169.083 757.289 173.25 754.789 177.75C752.289 182.25 750.122 186.833 748.289 191.5C746.456 196 745.039 200.417 744.039 204.75C743.039 208.917 742.539 212.667 742.539 216C742.539 220 743.206 223.833 744.539 227.5C745.872 231.167 747.372 233.25 749.039 233.75C756.539 232.083 763.372 229 769.539 224.5C775.872 219.833 781.289 214.083 785.789 207.25C790.456 200.417 794.039 192.667 796.539 184C799.206 175.333 800.539 166.083 800.539 156.25C800.539 151.917 800.289 148.5 799.789 146C799.289 143.5 798.456 141.333 797.289 139.5C789.956 141.667 783.372 145.167 777.539 150C771.872 154.833 766.956 159.917 762.789 165.25Z"></path>
    <path class="wordmark" d="M396.99 40.64C393.56 37.77 389.25 34.59 384.01 31.58C378.27 28.29 372.9 26.04 368.39 24.5C367.11 26.16 365.49 28.3 363.63 30.84C363.26 31.34 360.74 34.87 360 35.92C342.27 61.03 316.3 128.13 316.3 128.13C294.91 185.18 292.33 202.9 293.83 222.09C294.34 228.58 295.21 233.89 295.87 237.41C297.48 236.77 300.72 235.78 304.04 236.98C309.4 238.92 312.95 245.82 311.79 253.8C312.01 255.01 312.37 256.44 312.98 258C313.41 259.1 313.88 260.07 314.34 260.89C314.88 233.78 318.76 194.29 334.6 149.66C352.57 99.01 378.51 62.66 396.98 40.64H396.99Z"></path>
    <path class="wordmark" d="M453.86 45.2401C450.43 42.3701 446.12 39.1901 440.88 36.1801C435.14 32.8901 429.77 30.6401 425.26 29.1001C423.98 30.7601 422.36 32.9001 420.5 35.4401C420.13 35.9401 417.61 39.4701 416.87 40.5201C399.14 65.6301 373.17 132.73 373.17 132.73C351.78 189.78 349.2 207.5 350.7 226.69C351.21 233.18 352.08 238.49 352.74 242.01C354.35 241.37 357.59 240.38 360.91 241.58C366.27 243.52 369.82 250.42 368.66 258.4C368.88 259.61 369.24 261.04 369.85 262.6C370.28 263.7 370.75 264.67 371.21 265.49C371.75 238.38 375.63 198.89 391.47 154.26C409.44 103.61 435.38 67.2601 453.85 45.2401H453.86Z"></path>
    
    <path class="wordmark-cut" d="M425.24 54.0499C425.31 52.7999 425.47 47.6199 421.71 43.3699C419.86 41.2799 417.76 40.1999 416.43 39.6699C417.15 38.5799 417.88 37.4899 418.6 36.3899C419.93 37.2699 422.29 39.1199 423.96 42.2999C426.71 47.5499 425.59 52.6699 425.24 54.0399V54.0499Z"></path>
    <path class="wordmark-cut" d="M366.93 50.5001C367 49.2501 367.16 44.0701 363.4 39.8201C361.55 37.7301 359.45 36.6501 358.12 36.1201C358.84 35.0301 359.57 33.9401 360.29 32.8401C361.62 33.7201 363.98 35.5701 365.65 38.7501C368.4 44.0001 367.28 49.1201 366.93 50.4901V50.5001Z"></path>
  </g>
</svg>